<?xml version="1.0" standalone="no"?>
<!DOCTYPE svg PUBLIC "-//W3C//DTD SVG 20010904//EN"
 "http://www.w3.org/TR/2001/REC-SVG-20010904/DTD/svg10.dtd">
<svg version="1.0" xmlns="http://www.w3.org/2000/svg"
 width="1148.000000pt" height="224.000000pt" viewBox="0 0 1148.000000 224.000000"
 preserveAspectRatio="xMidYMid meet">
<metadata>
Created by potrace 1.16, written by Peter Selinger 2001-2019
</metadata>
<g transform="translate(0.000000,224.000000) scale(0.100000,-0.100000)"
fill="#000000" stroke="none">
<path d="M740 1709 c-82 -14 -197 -74 -255 -134 -59 -60 -108 -148 -130 -230
-19 -74 -19 -233 0 -304 45 -169 168 -302 328 -353 72 -23 221 -27 301 -9 135
32 259 130 321 254 19 38 35 76 35 83 0 13 -107 74 -129 74 -5 0 -12 -13 -16
-28 -10 -49 -77 -140 -134 -182 -234 -176 -551 6 -551 315 0 281 259 459 499
343 50 -24 145 -115 156 -148 6 -18 15 -20 76 -20 l69 0 0 165 0 165 -65 0
-65 0 0 -50 c0 -27 -2 -50 -4 -50 -2 0 -27 15 -55 34 -105 71 -246 99 -381 75z"/>
<path d="M8499 1705 c-47 -25 -60 -91 -26 -134 20 -24 58 -32 94 -20 38 12 53
34 53 79 0 44 -14 66 -51 79 -39 13 -38 13 -70 -4z"/>
<path d="M1422 1638 l3 -63 63 -3 62 -3 0 -379 0 -380 -65 0 -65 0 0 -65 0
-65 200 0 200 0 0 65 0 64 -62 3 -63 3 -3 186 -2 187 47 30 c104 67 164 78
210 38 l28 -24 3 -276 3 -276 130 0 129 0 0 65 0 64 -57 3 -58 3 -5 240 c-5
217 -7 243 -25 275 -49 84 -191 105 -305 46 -30 -15 -62 -34 -71 -42 -8 -8
-19 -14 -22 -14 -4 0 -7 86 -7 190 l0 190 -135 0 -136 0 3 -62z"/>
<path d="M3652 1638 l3 -63 63 -3 62 -3 0 -379 0 -380 -65 0 -65 0 0 -65 0
-65 190 0 190 0 0 64 0 65 -52 3 -53 3 -3 443 -2 442 -136 0 -135 0 3 -62z"/>
<path d="M6030 1635 l0 -65 60 0 60 0 0 -252 c0 -375 15 -466 91 -552 45 -52
115 -85 205 -96 200 -25 356 51 410 202 16 47 19 89 22 376 l3 322 65 0 64 0
0 65 0 65 -205 0 -205 0 0 -65 0 -65 61 0 60 0 -3 -313 -3 -313 -26 -49 c-33
-66 -87 -97 -167 -97 -102 0 -159 38 -189 126 -16 44 -18 90 -18 346 l0 295
58 3 57 3 0 64 0 65 -200 0 -200 0 0 -65z"/>
<path d="M8772 1638 l3 -63 63 -3 62 -3 0 -379 0 -380 -65 0 -65 0 0 -65 0
-65 195 0 195 0 0 65 0 64 -57 3 -58 3 -3 103 c-1 56 1 102 5 102 5 0 85 -77
178 -170 l170 -170 92 0 93 0 0 65 0 65 -63 0 -62 0 -118 118 c-64 64 -117
122 -116 127 0 6 56 56 124 113 l124 102 56 0 55 0 0 60 0 60 -200 0 -201 0 3
-57 3 -58 48 -5 48 -5 -110 -92 c-60 -51 -115 -93 -120 -93 -8 0 -11 99 -11
310 l0 310 -135 0 -136 0 3 -62z"/>
<path d="M2501 1394 c-24 -9 -61 -27 -82 -41 -41 -27 -94 -96 -85 -111 3 -5
33 -15 67 -21 61 -12 62 -12 87 14 66 72 209 73 252 3 18 -30 38 -144 27 -155
-3 -3 -31 5 -63 17 -68 25 -151 29 -217 11 -56 -16 -134 -81 -153 -128 -19
-44 -18 -137 2 -179 23 -49 96 -109 149 -124 87 -24 208 4 273 63 l22 20 0
-41 0 -42 125 0 125 0 0 65 0 65 -59 0 -59 0 -4 213 c-3 190 -5 217 -24 258
-28 61 -68 96 -128 114 -64 19 -198 18 -255 -1z m215 -420 c42 -26 49 -35 52
-66 3 -31 -2 -40 -35 -67 -46 -38 -132 -65 -179 -57 -104 20 -131 145 -44 204
50 34 138 28 206 -14z"/>
<path d="M4374 1392 c-96 -34 -165 -99 -212 -199 -24 -51 -27 -70 -27 -158 0
-93 2 -105 33 -167 61 -125 170 -195 322 -205 137 -10 254 31 341 117 28 28
49 56 47 62 -2 6 -30 22 -61 36 l-56 24 -50 -44 c-56 -50 -104 -68 -185 -68
-115 0 -203 69 -230 183 l-6 27 295 0 295 0 0 38 c-1 138 -97 290 -218 345
-66 30 -217 35 -288 9z m250 -139 c43 -31 93 -95 98 -128 3 -19 -3 -20 -209
-23 -238 -3 -230 -5 -194 66 24 46 65 86 111 107 54 24 143 14 194 -22z"/>
<path d="M9894 1392 c-96 -34 -165 -99 -212 -199 -24 -51 -27 -70 -27 -158 0
-93 2 -105 33 -167 61 -125 170 -195 322 -205 137 -10 254 31 341 117 28 28
49 56 47 62 -2 6 -30 22 -61 36 l-56 24 -50 -44 c-56 -50 -104 -68 -185 -68
-115 0 -203 69 -230 183 l-6 27 295 0 295 0 0 38 c-1 138 -97 290 -218 345
-66 30 -217 35 -288 9z m250 -139 c43 -31 93 -95 98 -128 3 -19 -3 -20 -209
-23 -238 -3 -230 -5 -194 66 24 46 65 86 111 107 54 24 143 14 194 -22z"/>
<path d="M3481 1385 c-47 -15 -92 -52 -122 -100 l-19 -30 0 68 0 67 -130 0
-130 0 0 -65 0 -65 70 0 70 0 0 -225 0 -225 -70 0 -70 0 0 -65 0 -65 220 0
220 0 0 65 0 65 -80 0 -80 0 0 93 c1 123 16 232 37 268 28 47 73 69 168 82
l85 11 0 68 0 68 -62 -1 c-35 0 -83 -6 -107 -14z"/>
<path d="M5136 1384 c-120 -44 -176 -162 -131 -271 33 -78 73 -101 252 -143
70 -17 135 -38 145 -47 24 -21 23 -68 -1 -92 -20 -20 -80 -41 -116 -41 -74 0
-165 63 -165 114 0 25 -2 26 -65 26 l-65 0 0 -125 0 -125 65 0 c53 0 65 3 65
16 0 12 5 14 18 9 75 -32 101 -37 183 -32 105 5 177 39 218 101 22 34 26 50
26 116 0 69 -3 80 -29 114 -37 49 -106 80 -221 101 -128 22 -171 40 -183 74
-12 33 4 67 39 87 29 16 107 18 146 3 41 -15 93 -69 93 -96 0 -23 3 -24 63
-21 l62 3 3 118 3 117 -65 0 c-35 0 -66 -4 -68 -10 -2 -6 -19 -4 -43 5 -51 18
-179 18 -229 -1z"/>
<path d="M7449 1376 c-31 -12 -70 -33 -88 -45 l-31 -22 0 40 0 41 -130 0 -130
0 0 -65 0 -65 60 0 60 0 0 -225 0 -225 -65 0 -65 0 0 -65 0 -65 198 2 197 3 0
60 0 60 -62 3 -63 3 0 183 c0 209 -6 194 95 246 73 36 133 40 161 9 17 -19 19
-44 24 -293 l5 -271 133 -3 132 -3 0 66 0 65 -60 0 -60 0 0 188 0 188 53 31
c101 61 161 70 202 28 l25 -24 0 -271 0 -270 135 0 135 0 0 65 0 65 -60 0 -60
0 0 208 c0 218 -7 269 -37 311 -36 48 -70 65 -137 69 -76 5 -138 -13 -217 -63
l-54 -34 -28 35 c-16 19 -42 41 -57 49 -44 23 -145 19 -211 -9z"/>
<path d="M10891 1385 c-47 -15 -92 -52 -122 -100 l-19 -30 0 68 0 67 -130 0
-130 0 0 -65 0 -65 70 0 70 0 0 -225 0 -225 -70 0 -70 0 0 -65 0 -65 220 0
220 0 0 65 0 65 -80 0 -80 0 0 93 c1 123 16 232 37 268 28 47 73 69 168 82
l85 11 0 68 0 68 -62 -1 c-35 0 -83 -6 -107 -14z"/>
<path d="M8362 1328 l3 -63 53 -3 52 -3 0 -225 0 -224 -55 0 -55 0 0 -65 0
-65 180 0 180 0 0 65 0 65 -50 0 -50 0 0 290 0 290 -130 0 -131 0 3 -62z"/>
</g>
</svg>
