<?xml version="1.0" ?><!DOCTYPE svg PUBLIC '-//W3C//DTD SVG 1.1//EN'  'http://www.w3.org/Graphics/SVG/1.1/DTD/svg11.dtd'><svg width="30px" height="30px" enable-background="new 0 0 50 50" id="Layer_1" version="1.1" viewBox="0 0 50 50" xml:space="preserve" xmlns="http://www.w3.org/2000/svg" xmlns:xlink="http://www.w3.org/1999/xlink"><g id="_x2E_oO"><path d="M23,28c-2.7,0-4,2.5-4,5l0,0c0,1,0,1,1,1h6c1,0,1,0,1-1l0,0C27,30.5,25.7,28,23,28z" fill="#484848"/><circle cx="23" cy="23" fill="#484848" r="4"/><path d="M34,27c-2.7,0-5,2.5-5,5v1c0,1,0,1,1,1h4h4c1,0,1,0,1-1v-1C39,29.5,36.7,27,34,27z" fill="#484848"/><circle cx="34" cy="21" fill="#484848" r="5"/><path d="M14,29c-2,0-3,2-3,3v1c0,1,0,1,1,1h4c1,0,1,0,1-1v-1C17,31,16,29,14,29z" fill="#484848"/><circle cx="14" cy="25" fill="#484848" r="3"/></g><path d="M25,1C11.7,1,1,11.7,1,25s10.7,24,24,24s24-10.7,24-24S38.3,1,25,1z M25,44C14.5,44,6,35.5,6,25S14.5,6,25,6  s19,8.5,19,19S35.5,44,25,44z" fill="#484848"/></svg>
